#!OML:ASF F:\VICON\USERDATA\INSTALL\rory3\rory3.ASF
:FULLY-SPECIFIED
:DEGREES
54
root 0.9043036492259409 17.830547927036502 30.60661357055926 -3.3378943638227296 -2.34916092214264 -6.3618371307102475
lfemur -11.079080468738432 0.9522081608412885 -10.511689566584618
ltibia 57.199776539658764
lfoot -9.139286876814486 0.7312465354314481
ltoes -12.208492434655113
rfemur -7.517937662212042 4.490799756156875 32.20619741178206
rtibia 29.323086434190834
rfoot -13.004758208311756 -10.830841524503933
rtoes -2.416391580919579
lowerback nan 0.08268997837001855 3.495205493948003
upperback -0.017468885456473515 0.9354633250137733 2.7325166665635123
thorax -6.319538382352711 0.41860980452565966 1.2101494803630886
lowerneck -17.099534992207175 -3.2798279511313875 -1.3916821621324085
upperneck 21.684914131797086 -4.351707326404339 0.763059896274413
head 9.746843108958675 -2.0826616380677914 -0.03632911898165472
lclavicle -2.5703415547057746e-15 -2.7754909075505193e-15
lhumerus -32.231123722234834 4.641900414575251 83.33050080356276
lradius 21.621572515914902
lwrist 10.915388950548454
lhand -29.922818565688356 18.205419030603682
lfingers nan
lthumb -3.0390379655807243 48.11351673542721
rclavicle -2.537367613479476e-15 -2.7559972593245733e-15
rhumerus -30.91525097436226 -23.228169521508388 -73.415459190806
rradius 29.154541857069177
rwrist 3.675739707786291
rhand -18.102356010001664 nan
rfingers nan
rthumb 8.63857755739603 -7.728803338136461
55
root 0.9279500830271468 17.830689336112812 30.823612954951173 -3.4090470550502623 -1.947443662800848 -6.9620604041950305
lfemur -14.54405699111453 0.9879933004177515 -10.391517105222537
ltibia 57.125320958667515
lfoot -9.469685935815964 0.35949159330917846
ltoes -14.4423890535327
rfemur -6.391481515414204 4.151667106771804 32.77502903005147
rtibia 29.6077844556942
rfoot -10.872741007782077 -10.272592434210587
rtoes -2.413765423546737
lowerback nan 0.28469308668704074 4.264742357907815
upperback -0.012862506167894458 1.3974265373104418 2.7294817696565827
thorax -6.258638081983213 0.648781744327739 0.6265223300200009
lowerneck -17.0514953216141 -3.3931513320424136 -1.3578106446320712
upperneck 21.62173761906506 -4.577489457594845 0.8480353838919368
head 9.730800161311485 -2.16458058339004 -0.058500532977760894
lclavicle -2.567726768085332e-15 -2.775642471122745e-15
lhumerus -33.016704811331984 5.430266957447374 83.33581595476882
lradius 22.264802947398373
lwrist 11.140741054056075
lhand -30.11110799810454 18.012794834827837
lfingers nan
lthumb -3.207909741352083 48.04394038656251
rclavicle -2.5349187180605807e-15 -2.7558210725507187e-15
rhumerus -29.67487516453685 -22.09506343325889 -73.70294252874235
rradius 29.47028496870229
rwrist 3.3183986733391158
rhand -18.067578039341104 nan
rfingers nan
rthumb 8.597519239886523 -7.568675553476547
56
root 0.9439436377724781 17.82938691709866 31.007944065446907 -3.5257091923901758 -1.7043036819570525 -7.676365253456108
lfemur -17.785223976221815 0.7050272582089696 -10.552335801586876
ltibia 55.8738630798699
lfoot -9.801079475104203 0.4245966326431021
ltoes -14.227802271005974
rfemur -5.208876558651049 4.132966831730653 33.43485556080307
rtibia 30.193446431349187
rfoot -8.541120694029473 -9.922995563070058
rtoes -1.720180154795437
lowerback nan 0.5975583618297715 5.150783869054934
upperback -0.08003446610394317 2.0264387881840755 2.656708712260773
thorax -6.247646045205772 0.9158177860044716 -0.17851338809439832
lowerneck -16.917938307940236 -3.5196522434650057 -1.3570519672184398
upperneck 21.593287949702184 -4.821545201269926 0.9352747945845851
head 9.71374397527983 -2.2532967486679287 -0.07651984155823413
lclavicle -2.5641816675043505e-15 -2.7758013785922257e-15
lhumerus -33.689521548284105 5.832556711534011 83.19890830417272
lradius 22.94484049228679
lwrist 11.254833662197877
lhand -30.17761729774123 17.982713447704082
lfingers nan
lthumb -3.317603862935107 48.02929883716218
rclavicle -2.534696123297657e-15 -2.75733889773588e-15
rhumerus -28.65127151238903 -21.05584070067311 -73.88527323273466
rradius 29.94643567753114
rwrist 2.904383081228278
rhand -18.011326931421777 nan
rfingers nan
rthumb 8.565882602855622 -7.303651154200853
57
root 0.960295142630669 17.829094219659037 31.809297414194695 -3.602496609258706 -1.6564934401334286 -8.064215623827746
lfemur -19.76363845868021 0.3605405084921438 -10.917975495194744
ltibia 53.13999443821483
lfoot -10.667697849735221 0.7440007890149776
ltoes -14.942985822427506
rfemur -4.668504765803386 4.369923063903387 33.79618586929905
rtibia 31.41174310297722
rfoot -6.366257143184511 -9.871058124025083
rtoes -0.42813827876718324
lowerback nan 0.8336787181155242 5.690371049608277
upperback -0.117461226277432 2.3658022329093957 2.538214387596188
thorax -6.189138385272558 1.0677931242863166 -0.7191492768971293
lowerneck -16.739190742468768 -3.6279620032296136 -1.3743401883016464
upperneck 21.6611538337548 -5.025742386811247 1.0196924366554265
head 9.725485013447267 -2.3275468641918566 -0.08204420417057237
lclavicle -2.558133698801796e-15 -2.775085637590622e-15
lhumerus -34.11589547581929 5.974221768130907 83.00357459912374
lradius 23.62814680029619
lwrist 11.299991176243974
lhand -30.047184910221937 18.156192384270174
lfingers nan
lthumb -3.2869341618489636 48.154713568250486
rclavicle -2.5341264944076497e-15 -2.759077329165978e-15
rhumerus -27.93499095123247 -20.157656186635652 -73.99493249235026
rradius 30.53461217277477
rwrist 2.5855847109556604
rhand -18.015281728761682 nan
rfingers nan
rthumb 8.47969186274653 -7.204218897178398
58
root 0.9718029276342802 17.832289283770628 32.07608140572996 -3.6992678047432603 -1.6382500006473588 -8.36633747559363
lfemur -20.34457306244251 0.11665424352983012 -11.089917481364646
ltibia 48.8584663346883
lfoot -10.398072422084795 1.5682672250093206
ltoes -16.234622557776017
rfemur -4.735607041445462 4.595291112794669 34.01562283362824
rtibia 33.60212486141949
rfoot -4.573647021770579 -10.091504668336725
rtoes 1.3870966920765673
lowerback nan 1.0327270651005929 6.025694215203589
upperback -0.1489490723381663 2.5339068116755166 2.3208808393434426
thorax -6.095086549650916 1.1516973127178307 -0.9905631582515644
lowerneck -16.50995046306259 -3.7207517915038406 -1.4133497157425785
upperneck 21.72059027033623 -5.2026404264247885 1.1319671947415
head 9.736011297019486 -2.387147151925628 -0.06496550409914056
lclavicle -2.5536569012208553e-15 -2.7742608980512793e-15
lhumerus -34.212122240781746 5.919040401282061 82.82044349858815
lradius 24.291741995710264
lwrist 11.24346870425269
lhand -29.973687574502037 18.1450407260547
lfingers nan
lthumb -3.261776919414703 48.139342526830475
rclavicle -2.533138067514011e-15 -2.7598228030882163e-15
rhumerus -27.499077567952053 -19.399270276672034 -74.09663508763343
rradius 31.136560262602007
rwrist 2.4380499801264657
rhand -18.0122799379247 nan
rfingers nan
rthumb 8.491144451786539 -7.058035824258718
